<svg version="1.0" xmlns="http://www.w3.org/2000/svg" width="548" height="209.333" viewBox="0 0 411 157"><g fill="#0f0f0f"><path fill="#6D50BF" d="M281.7 1.4c-4.6 1.7-7.4 4-9.4 8-1.3 2.5-1.6 12.1-1.7 69-.1 65-.1 66.2 2 69.6 1.1 1.9 3.6 4.5 5.5 5.8 2.9 2 4.3 2.3 9.4 2 5.8-.4 8.1-1.7 59.5-31.2 29.4-17 54.9-31.9 56.6-33.2 8.9-6.6 8.2-20.7-1.4-26.8C395 59.9 297.5 3.7 293.5 1.9c-4.7-2.2-6.7-2.3-11.8-.5zm48.2 46.1c4.4 10.6 6.1 17.9 6.1 26.7 0 4.3.2 7.8.4 7.8s2.4-.9 5-2.1c2.5-1.1 5.1-1.7 5.6-1.4.6.3 1 4.1 1 8.3 0 5.9-.5 8.5-2 10.9-2.7 4.5-3.4 4.4-8.3-1.5l-2.7-3.3-1.1 2.8c-3.8 9.2-6.7 14.1-11.6 19.4-3.1 3.3-6.4 6.4-7.5 7-2.7 1.5-5.8.2-5.8-2.5 0-2.8 4.9-17.4 8.6-25.7l2.8-6.2-3-2.3c-1.6-1.3-3.5-2.4-4.1-2.4-2.1 0-1.5-3.8.7-5 1.1-.6 3.1-.8 4.5-.4l2.5.6V40.3l2.9-.1c2.8-.1 3.2.5 6 7.3z"/><path d="M7.4 53.9c-3.9 2.4-5.8 6.9-5.1 12.4.7 4.8 3.3 7.5 11.6 12 5.6 3 7 4.9 5.1 7.2-1.7 2.1-5.9 1.9-9.6-.4l-3.2-1.9-2.6 2.7C.2 89.4.9 91.3 6.4 94c11.7 5.6 24.4-.8 23.3-11.8-.6-5.3-2.6-7.6-9.8-11.2-6.3-3.2-8.2-5.1-7.7-7.7.4-2.2 5.7-3 8.8-1.3 1.8 1 2.4.8 3.6-.7 3.6-4.6 3.6-5.2.2-7.3-4.4-2.6-13.1-2.7-17.4-.1zM136 72.8v20.9l3.9 1.1c9.2 2.8 18.7.6 22.2-5.2 2.6-4.2 2.5-12.1-.1-16.4-2.6-4.2-8.1-6.6-13.2-5.8l-3.8.6V52h-9v20.8zm17.6 5.7c2.1 3.2.7 7.7-2.8 8.9-4.4 1.5-5.8.2-5.8-5.2 0-5.7.4-6.2 4.1-6.2 1.9 0 3.4.8 4.5 2.5zM229 59.7v7.8l-5.4.1c-9 0-14.6 5.6-14.6 14.5 0 8.5 6 14.4 13.5 13.4 2.2-.3 6.6-.5 9.8-.5l5.7.1V52h-9v7.7zm-.2 21.4c.3 4.4.1 4.7-2.7 5.7-4.1 1.4-7.1-.8-7.1-5.2 0-4.2 1.7-5.8 6-5.4 3.4.3 3.5.4 3.8 4.9zm-57.2-26.5c-2.4 2.3-2 6.1.8 7.9 2.3 1.6 5.4 1.1 6.8-.9 1.2-1.7.9-6.1-.4-7.4-1.7-1.7-5.4-1.5-7.2.4zM43.5 68.4c-5.2 2.3-7.8 6-8.2 11.8-.7 9.4 5.1 15.8 14.5 15.8C59.3 96 65 90.7 65 81.7c0-6.3-2.3-10.2-7.5-12.7-4.7-2.3-9.7-2.5-14-.6zm11.1 10.2c3.6 5.4-2.9 12.2-7.5 8-3-2.7-3.5-5.4-1.7-8.1 2.3-3.5 7-3.4 9.2.1zm29.9-10.9c-1.1.3-2.6 1-3.2 1.5-.9.7-1.3.7-1.3-.1 0-.6-1.8-1.1-4.5-1.1H71v27h9v-9c0-8.9 0-9 2.7-9.6 4.8-1.2 5.8.4 6.1 10l.3 8.6H98V85c0-10.2-.9-13.8-3.9-15.7-2.2-1.4-7.1-2.2-9.6-1.6zm25.9.7c-7.4 3.3-8.7 12.9-2.2 17.4 2.7 2 2.1 4.5-1.5 6.2-6.8 3.2-7 11.2-.2 14.4 4.3 2.1 14.7 2.1 19 0 4.1-1.9 6-6 4.6-9.7-1.2-3.2-4.4-5.3-9.3-6.2-4.7-.9-4.8-1.7-.3-3.4 4.3-1.5 7.5-5.5 7.5-9.2 0-2.2.5-2.9 2-2.9 1.7 0 2-.7 2-3.9v-3.9l-4.2.9c-2.7.7-5.2.6-7.1-.1-3.9-1.3-6.5-1.2-10.3.4zm8 7.2c2 1.9 2 2.8.1 4.4-1.8 1.5-4.5 1-5.9-1.3-.9-1.5-.7-2.1.8-3.3 2.5-1.8 3.1-1.8 5 .2zm2.5 22.3c2.5 1.6.1 3.1-4.9 3.1s-7.4-1.5-4.9-3.1c.8-.5 3-.9 4.9-.9 1.9 0 4.1.4 4.9.9zm79.8-30.2c-.4.3-3.4.5-6.7.4l-6-.2V95h8.9l.3-9.3.3-9.2h3c2.6 0 3.2-.6 4.6-4 1.6-3.7 1.6-4 0-4.7-2.1-.9-3.6-.9-4.4-.1zM171 81.5V95h9V68h-9v13.5z"/></g></svg>