<?xml version="1.0" standalone="no"?>
<!DOCTYPE svg PUBLIC "-//W3C//DTD SVG 20010904//EN"
 "http://www.w3.org/TR/2001/REC-SVG-20010904/DTD/svg10.dtd">
<svg version="1.0" xmlns="http://www.w3.org/2000/svg"
 width="411.000000pt" height="157.000000pt" viewBox="0 0 411.000000 157.000000"
 preserveAspectRatio="xMidYMid meet">

<g transform="translate(0.000000,157.000000) scale(0.100000,-0.100000)"
fill="#0f0f0f" stroke="none">
<path fill="#6D50BF" d="M2817 1556 c-46 -17 -74 -40 -94 -80 -13 -25 -16 -121 -17 -690 -1
-650 -1 -662 20 -696 11 -19 36 -45 55 -58 29 -20 43 -23 94 -20 58 4 81 17
595 312 294 170 549 319 566 332 89 66 82 207 -14 268 -72 47 -1047 609 -1087
627 -47 22 -67 23 -118 5z m482 -461 c44 -106 61 -179 61 -267 0 -43 2 -78 4
-78 2 0 24 9 50 21 25 11 51 17 56 14 6 -3 10 -41 10 -83 0 -59 -5 -85 -20
-109 -27 -45 -34 -44 -83 15 l-27 33 -11 -28 c-38 -92 -67 -141 -116 -194 -31
-33 -64 -64 -75 -70 -27 -15 -58 -2 -58 25 0 28 49 174 86 257 l28 62 -30 23
c-16 13 -35 24 -41 24 -21 0 -15 38 7 50 11 6 31 8 45 4 l25 -6 0 189 0 190
29 1 c28 1 32 -5 60 -73z"/>
<path d="M74 1031 c-39 -24 -58 -69 -51 -124 7 -48 33 -75 116 -120 56 -30 70
-49 51 -72 -17 -21 -59 -19 -96 4 l-32 19 -26 -27 c-34 -35 -27 -54 28 -81
117 -56 244 8 233 118 -6 53 -26 76 -98 112 -63 32 -82 51 -77 77 4 22 57 30
88 13 18 -10 24 -8 36 7 36 46 36 52 2 73 -44 26 -131 27 -174 1z"/>
<path d="M1360 842 l0 -209 39 -11 c92 -28 187 -6 222 52 26 42 25 121 -1 164
-26 42 -81 66 -132 58 l-38 -6 0 80 0 80 -45 0 -45 0 0 -208z m176 -57 c21
-32 7 -77 -28 -89 -44 -15 -58 -2 -58 52 0 57 4 62 41 62 19 0 34 -8 45 -25z"/>
<path d="M2290 973 l0 -78 -54 -1 c-90 0 -146 -56 -146 -145 0 -85 60 -144
135 -134 22 3 66 5 98 5 l57 -1 0 215 0 216 -45 0 -45 0 0 -77z m-2 -214 c3
-44 1 -47 -27 -57 -41 -14 -71 8 -71 52 0 42 17 58 60 54 34 -3 35 -4 38 -49z"/>
<path d="M1716 1024 c-24 -23 -20 -61 8 -79 23 -16 54 -11 68 9 12 17 9 61 -4
74 -17 17 -54 15 -72 -4z"/>
<path d="M435 886 c-52 -23 -78 -60 -82 -118 -7 -94 51 -158 145 -158 95 0
152 53 152 143 0 63 -23 102 -75 127 -47 23 -97 25 -140 6z m111 -102 c36 -54
-29 -122 -75 -80 -30 27 -35 54 -17 81 23 35 70 34 92 -1z"/>
<path d="M845 893 c-11 -3 -26 -10 -32 -15 -9 -7 -13 -7 -13 1 0 6 -18 11 -45
11 l-45 0 0 -135 0 -135 45 0 45 0 0 90 c0 89 0 90 27 96 48 12 58 -4 61 -100
l3 -86 44 0 45 0 0 100 c0 102 -9 138 -39 157 -22 14 -71 22 -96 16z"/>
<path d="M1104 886 c-74 -33 -87 -129 -22 -174 27 -20 21 -45 -15 -62 -68 -32
-70 -112 -2 -144 43 -21 147 -21 190 0 41 19 60 60 46 97 -12 32 -44 53 -93
62 -47 9 -48 17 -3 34 43 15 75 55 75 92 0 22 5 29 20 29 17 0 20 7 20 39 l0
39 -42 -9 c-27 -7 -52 -6 -71 1 -39 13 -65 12 -103 -4z m80 -72 c20 -19 20
-28 1 -44 -18 -15 -45 -10 -59 13 -9 15 -7 21 8 33 25 18 31 18 50 -2z m25
-223 c25 -16 1 -31 -49 -31 -50 0 -74 15 -49 31 8 5 30 9 49 9 19 0 41 -4 49
-9z"/>
<path d="M2007 893 c-4 -3 -34 -5 -67 -4 l-60 2 0 -136 0 -135 45 0 44 0 3 93
3 92 30 0 c26 0 32 6 46 40 16 37 16 40 0 47 -21 9 -36 9 -44 1z"/>
<path d="M1710 755 l0 -135 45 0 45 0 0 135 0 135 -45 0 -45 0 0 -135z"/>
</g>
</svg>
